<svg version="1.1" xmlns="http://www.w3.org/2000/svg" xmlns:xlink="http://www.w3.org/1999/xlink" width="775.61328125" height="240"><defs/><g><g transform="translate(-238,-161) scale(1,1)"><rect fill="#C0C0C0" stroke="none" x="255" y="260" width="188.537109375" height="70" opacity="0.2"/></g><g transform="translate(-238,-161) scale(1,1)"><rect fill="#ffffff" stroke="none" x="248" y="253" width="188.537109375" height="70"/></g><g transform="translate(-238,-161) scale(1,1)"><path fill="none" stroke="#000000" d="M 248 253 L 436.537109375 253 L 436.537109375 323 L 248 323 L 248 253 Z Z" stroke-miterlimit="10"/></g><g transform="translate(-238,-161) scale(1,1)"><path fill="none" stroke="#000000" d="M 248 278 L 436.537109375 278" stroke-miterlimit="10"/></g><g transform="translate(-238,-161) scale(1,1)"><path fill="none" stroke="#000000" d="M 248 301 L 436.537109375 301" stroke-miterlimit="10"/></g><g transform="translate(-238,-161) scale(1,1)"><g><path fill="none" stroke="none"/><text fill="#000000" stroke="none" font-family="Arial" font-size="13px" font-style="normal" font-weight="bold" text-decoration="none" x="291.331787109375" y="272.5">ParallaxAlgoritmo</text></g></g><g transform="translate(-238,-161) scale(1,1)"><g><path fill="none" stroke="none"/><text fill="#000000" stroke="none" font-family="Arial" font-size="13px" font-style="normal" font-weight="normal" text-decoration="none" x="253" y="295.5">-parallax: static Robot</text></g></g><g transform="translate(-238,-161) scale(1,1)"><g><path fill="none" stroke="none"/><text fill="#000000" stroke="none" font-family="Arial" font-size="13px" font-style="normal" font-weight="normal" text-decoration="none" x="253" y="318.5">+main String(args[]): static void</text></g></g><g transform="translate(-238,-161) scale(1,1)"><rect fill="#C0C0C0" stroke="none" x="783" y="178" width="227.61328125" height="220" opacity="0.2"/></g><g transform="translate(-238,-161) scale(1,1)"><rect fill="#ffffff" stroke="none" x="776" y="171" width="227.61328125" height="220"/></g><g transform="translate(-238,-161) scale(1,1)"><path fill="none" stroke="#000000" d="M 776 171 L 1003.61328125 171 L 1003.61328125 391 L 776 391 L 776 171 Z Z" stroke-miterlimit="10"/></g><g transform="translate(-238,-161) scale(1,1)"><path fill="none" stroke="#000000" d="M 776 196 L 1003.61328125 196" stroke-miterlimit="10"/></g><g transform="translate(-238,-161) scale(1,1)"><path fill="none" stroke="#000000" d="M 776 264 L 1003.61328125 264" stroke-miterlimit="10"/></g><g transform="translate(-238,-161) scale(1,1)"><g><path fill="none" stroke="none"/><text fill="#000000" stroke="none" font-family="Arial" font-size="13px" font-style="normal" font-weight="bold" text-decoration="none" x="872.461669921875" y="190.5">Robot</text></g></g><g transform="translate(-238,-161) scale(1,1)"><g><path fill="none" stroke="none"/><text fill="#000000" stroke="none" font-family="Arial" font-size="13px" font-style="normal" font-weight="normal" text-decoration="none" x="781" y="213.5">-ycoordinate: int</text></g></g><g transform="translate(-238,-161) scale(1,1)"><g><path fill="none" stroke="none"/><text fill="#000000" stroke="none" font-family="Arial" font-size="13px" font-style="normal" font-weight="normal" text-decoration="none" x="781" y="228.5">-xcoordinate: int</text></g></g><g transform="translate(-238,-161) scale(1,1)"><g><path fill="none" stroke="none"/><text fill="#000000" stroke="none" font-family="Arial" font-size="13px" font-style="normal" font-weight="normal" text-decoration="none" x="781" y="243.5">-direccion: int</text></g></g><g transform="translate(-238,-161) scale(1,1)"><g><path fill="none" stroke="none"/><text fill="#000000" stroke="none" font-family="Arial" font-size="13px" font-style="normal" font-weight="normal" text-decoration="none" x="781" y="258.5">-giros: int</text></g></g><g transform="translate(-238,-161) scale(1,1)"><g><path fill="none" stroke="none"/><text fill="#000000" stroke="none" font-family="Arial" font-size="13px" font-style="normal" font-weight="normal" text-decoration="none" x="781" y="281.5">+Robot()</text></g></g><g transform="translate(-238,-161) scale(1,1)"><g><path fill="none" stroke="none"/><text fill="#000000" stroke="none" font-family="Arial" font-size="13px" font-style="normal" font-weight="normal" text-decoration="none" x="781" y="296.5">+move(): void</text></g></g><g transform="translate(-238,-161) scale(1,1)"><g><path fill="none" stroke="none"/><text fill="#000000" stroke="none" font-family="Arial" font-size="13px" font-style="normal" font-weight="normal" text-decoration="none" x="781" y="311.5">+turnLeft(): void</text></g></g><g transform="translate(-238,-161) scale(1,1)"><g><path fill="none" stroke="none"/><text fill="#000000" stroke="none" font-family="Arial" font-size="13px" font-style="normal" font-weight="normal" text-decoration="none" x="781" y="326.5">+turnRight(): void</text></g></g><g transform="translate(-238,-161) scale(1,1)"><g><path fill="none" stroke="none"/><text fill="#000000" stroke="none" font-family="Arial" font-size="13px" font-style="normal" font-weight="normal" text-decoration="none" x="781" y="341.5">+followWall(): void</text></g></g><g transform="translate(-238,-161) scale(1,1)"><g><path fill="none" stroke="none"/><text fill="#000000" stroke="none" font-family="Arial" font-size="13px" font-style="normal" font-weight="normal" text-decoration="none" x="781" y="356.5">+getCoordenadas(): String</text></g></g><g transform="translate(-238,-161) scale(1,1)"><g><path fill="none" stroke="none"/><text fill="#000000" stroke="none" font-family="Arial" font-size="13px" font-style="normal" font-weight="normal" text-decoration="none" x="781" y="371.5">+rightIsClear(input: boolean): boolean</text></g></g><g transform="translate(-238,-161) scale(1,1)"><g><path fill="none" stroke="none"/><text fill="#000000" stroke="none" font-family="Arial" font-size="13px" font-style="normal" font-weight="normal" text-decoration="none" x="781" y="386.5">+frontIsClear(input: boolean): boolean</text></g></g><g transform="translate(-238,-161) scale(1,1)"><path fill="none" stroke="#000000" d="M 438 287 L 775 282" stroke-miterlimit="10" stroke-dasharray="3"/></g><g transform="translate(-238,-161) scale(1,1)"><path fill="none" stroke="#000000" d="M 764.9008923950369 286.35981944389624 L 775 282 L 764.77599463507 277.94171042212594" stroke-miterlimit="10"/></g></g></svg>